<?xml version="1.0" encoding="UTF-8"?>
<!DOCTYPE svg PUBLIC "-//W3C//DTD SVG 1.0//EN" "http://www.w3.org/TR/2001/REC-SVG-20010904/DTD/svg10.dtd">
<!-- Creator: CorelDRAW 2018 (64-Bit) -->
<svg xmlns="http://www.w3.org/2000/svg" xml:space="preserve" width="29px" height="44px" version="1.0" style="shape-rendering:geometricPrecision; text-rendering:geometricPrecision; image-rendering:optimizeQuality; fill-rule:evenodd; clip-rule:evenodd"
viewBox="0 0 3.622 5.44"
 xmlns:xlink="http://www.w3.org/1999/xlink">
 <defs>
  <style type="text/css">
   <![CDATA[
    .str0 {stroke:#2B2A29;stroke-width:0.071;stroke-miterlimit:22.9256}
    .fil2 {fill:none}
    .fil0 {fill:#EBECEC}
    .fil1 {fill:black;fill-rule:nonzero}
   ]]>
  </style>
 </defs>
 <g id="Слой_x0020_1">
  <metadata id="CorelCorpID_0Corel-Layer"/>
  <g id="_1503898701600">
   <path class="fil0 str0" d="M1.827 0.035c0.965,0 1.873,1.374 1.748,2.685 -0.125,1.311 -0.783,2.684 -1.748,2.684 -0.966,0 -2.023,-1.24 -1.748,-2.684 0.274,-1.444 0.782,-2.685 1.748,-2.685z"/>
   <g>
    <path class="fil1" d="M2.017 3.787c-0.025,0.092 -0.053,0.179 -0.085,0.269 -0.032,0.079 -0.542,1.241 -0.691,1.194 -0.059,-0.048 0.445,-1.15 0.486,-1.265 0.027,-0.084 0.05,-0.166 0.07,-0.252 0.031,-0.138 0.049,-0.256 0.053,-0.397 0.002,-0.212 -0.026,-0.368 -0.13,-0.554 -0.136,-0.244 -0.169,-0.468 -0.174,-0.744 0.003,-0.292 0.041,-0.54 0.106,-0.824 0.083,-0.329 0.182,-0.649 0.322,-0.959 0.035,-0.078 0.126,-0.221 0.23,-0.157 0.095,0.058 0.052,0.188 0.016,0.268 -0.135,0.3 -0.229,0.59 -0.312,0.91 -0.062,0.262 -0.1,0.492 -0.106,0.762 0.002,0.225 0.023,0.418 0.132,0.619 0.125,0.232 0.16,0.425 0.153,0.686 -0.008,0.158 -0.031,0.291 -0.07,0.444z"/>
   </g>
   <path class="fil2" d="M2.204 0.098c-0.19,0.312 -0.814,1.873 -0.377,2.622 0.437,0.749 -0.235,1.876 -0.586,2.53"/>
  </g>
 </g>
</svg>
