<?xml version="1.0" encoding="UTF-8"?>
<!DOCTYPE svg PUBLIC "-//W3C//DTD SVG 1.0//EN" "http://www.w3.org/TR/2001/REC-SVG-20010904/DTD/svg10.dtd">
<!-- Creator: CorelDRAW 2018 (64-Bit) -->
<svg xmlns="http://www.w3.org/2000/svg" xml:space="preserve" width="29px" height="44px" version="1.0" style="shape-rendering:geometricPrecision; text-rendering:geometricPrecision; image-rendering:optimizeQuality; fill-rule:evenodd; clip-rule:evenodd"
viewBox="0 0 0.481 0.722"
 xmlns:xlink="http://www.w3.org/1999/xlink">
 <defs>
  <style type="text/css">
   <![CDATA[
    .str0 {stroke:#2B2A29;stroke-width:0.009;stroke-miterlimit:22.9256}
    .fil2 {fill:none}
    .fil0 {fill:#EF7F1A}
    .fil1 {fill:black;fill-rule:nonzero}
   ]]>
  </style>
 </defs>
 <g id="Слой_x0020_1">
  <metadata id="CorelCorpID_0Corel-Layer"/>
  <g id="_1503982419296">
   <path class="fil0 str0" d="M0.242 0.005c0.128,0 0.249,0.182 0.232,0.356 -0.016,0.174 -0.104,0.356 -0.232,0.356 -0.128,0 -0.268,-0.165 -0.232,-0.356 0.037,-0.192 0.104,-0.356 0.232,-0.356z"/>
   <g>
    <path class="fil1" d="M0.268 0.502c-0.004,0.013 -0.007,0.024 -0.012,0.036 -0.004,0.011 -0.072,0.165 -0.091,0.159 -0.008,-0.007 0.059,-0.153 0.064,-0.168 0.004,-0.011 0.007,-0.022 0.009,-0.034 0.005,-0.018 0.007,-0.034 0.008,-0.052 0,-0.028 -0.004,-0.049 -0.018,-0.074 -0.018,-0.032 -0.022,-0.062 -0.023,-0.099 0,-0.038 0.006,-0.071 0.014,-0.109 0.011,-0.044 0.024,-0.086 0.043,-0.127 0.005,-0.011 0.017,-0.029 0.03,-0.021 0.013,0.008 0.007,0.025 0.003,0.036 -0.018,0.039 -0.031,0.078 -0.042,0.12 -0.008,0.035 -0.013,0.066 -0.014,0.101 0,0.03 0.003,0.056 0.018,0.083 0.016,0.03 0.021,0.056 0.02,0.091 -0.001,0.021 -0.004,0.038 -0.009,0.058z"/>
   </g>
   <path class="fil2" d="M0.292 0.013c-0.025,0.041 -0.108,0.248 -0.05,0.348 0.058,0.099 -0.031,0.249 -0.077,0.336"/>
  </g>
 </g>
</svg>
