<?xml version="1.0" encoding="UTF-8"?>
<!DOCTYPE svg PUBLIC "-//W3C//DTD SVG 1.0//EN" "http://www.w3.org/TR/2001/REC-SVG-20010904/DTD/svg10.dtd">
<!-- Creator: CorelDRAW 2018 (64-Bit) -->
<svg xmlns="http://www.w3.org/2000/svg" xml:space="preserve" width="70px" height="120px" version="1.0" style="shape-rendering:geometricPrecision; text-rendering:geometricPrecision; image-rendering:optimizeQuality; fill-rule:evenodd; clip-rule:evenodd"
viewBox="0 0 2.509 4.292"
 xmlns:xlink="http://www.w3.org/1999/xlink">
 <defs>
  <style type="text/css">
   <![CDATA[
    .str1 {stroke:#EBECEC;stroke-width:0.02;stroke-miterlimit:22.9256;stroke-opacity:0.258824}
    .str0 {stroke:#2B2A29;stroke-width:0.02;stroke-miterlimit:22.9256}
    .str2 {stroke:#2B2A29;stroke-width:0.02;stroke-miterlimit:22.9256}
    .fil0 {fill:none;fill-rule:nonzero}
    .fil3 {fill:#FFED00}
    .fil4 {fill:#FEFEFE;fill-rule:nonzero}
    .fil1 {fill:#1F1B20;fill-opacity:0.258824}
    .fil2 {fill:url(#id0)}
   ]]>
  </style>
  <linearGradient id="id0" gradientUnits="userSpaceOnUse" x1="0.854" y1="2.062" x2="0.849" y2="0.01">
   <stop offset="0" style="stop-opacity:1; stop-color:#8F8515"/>
   <stop offset="0.372549" style="stop-opacity:1; stop-color:#998F12"/>
   <stop offset="0.490196" style="stop-opacity:1; stop-color:#FBFAEC"/>
   <stop offset="0.941176" style="stop-opacity:1; stop-color:#AF9E09"/>
   <stop offset="1" style="stop-opacity:1; stop-color:#A4990F"/>
  </linearGradient>
 </defs>
 <g id="Слой_x0020_1">
  <metadata id="CorelCorpID_0Corel-Layer"/>
  <path class="fil0 str0" d="M1.17 2.775l0 0.749 0.24 0 -0.481 0.749 -0.482 -0.749 0.241 0 0 -0.749 0.482 0zm0 0.375m0.12 0.374m-0.12 0.375m-0.482 0m-0.12 -0.375m0.12 -0.374m0.241 -0.375"/>
  <path class="fil1 str1" d="M1.5 0.367c0.053,0 0.107,0 0.16,0 0.463,0 0.839,0.463 0.839,1.034 0,0.572 -0.376,1.035 -0.839,1.035 -0.053,0 -0.107,0 -0.16,0 -0.463,0 -0.839,-0.463 -0.839,-1.035 0,-0.571 0.376,-1.034 0.839,-1.034z"/>
  <path class="fil2 str2" d="M0.849 0.01c0.027,0 0.053,0.002 0.08,0.005 -0.426,0.05 -0.758,0.492 -0.758,1.03 0,0.538 0.332,0.98 0.758,1.03 -0.027,0.003 -0.053,0.004 -0.08,0.004 -0.464,0 -0.839,-0.463 -0.839,-1.034 0,-0.572 0.375,-1.035 0.839,-1.035z"/>
  <ellipse class="fil3 str2" cx="1.009" cy="1.045" rx="0.838" ry="1.035"/>
  <path class="fil4" d="M1.083 1.691l-0.169 0 0 -1.074c-0.041,0.039 -0.094,0.078 -0.16,0.117 -0.066,0.038 -0.125,0.067 -0.177,0.087l0 -0.163c0.094,-0.044 0.176,-0.098 0.247,-0.161 0.07,-0.063 0.121,-0.124 0.15,-0.184l0.109 0 0 1.378z"/>
 </g>
</svg>
