<?xml version="1.0" encoding="UTF-8"?>
<!DOCTYPE svg PUBLIC "-//W3C//DTD SVG 1.0//EN" "http://www.w3.org/TR/2001/REC-SVG-20010904/DTD/svg10.dtd">
<!-- Creator: CorelDRAW 2018 (64-Bit) -->
<svg xmlns="http://www.w3.org/2000/svg" xml:space="preserve" width="32px" height="30px" version="1.0" style="shape-rendering:geometricPrecision; text-rendering:geometricPrecision; image-rendering:optimizeQuality; fill-rule:evenodd; clip-rule:evenodd"
viewBox="0 0 4.226 4.025"
 xmlns:xlink="http://www.w3.org/1999/xlink">
 <defs>
  <style type="text/css">
   <![CDATA[
    .str0 {stroke:#2B2A29;stroke-width:0.076;stroke-miterlimit:22.9256}
    .fil1 {fill:#EBECEC}
    .fil0 {fill:#9D9E9E}
   ]]>
  </style>
 </defs>
 <g id="Слой_x0020_1">
  <metadata id="CorelCorpID_0Corel-Layer"/>
  <g id="_1503976999696">
   <path class="fil0 str0" d="M3.437 3.087c0,0.497 -0.622,0.9 -1.391,0.9 -0.768,0 -1.391,-0.403 -1.391,-0.9l-0.416 -1.576 3.615 0 -0.417 1.576 0 0z"/>
   <path class="fil1 str0" d="M2.046 0.038c1.109,0 2.008,0.599 2.008,1.339 0,0.179 -0.053,0.351 -0.149,0.507 0.172,0.098 0.283,0.254 0.283,0.43 0,0.296 -0.314,0.535 -0.703,0.535 -0.253,0 -0.476,-0.102 -0.599,-0.256 -0.256,0.079 -0.54,0.123 -0.84,0.123 -1.109,0 -2.008,-0.6 -2.008,-1.339 0,-0.74 0.899,-1.339 2.008,-1.339z"/>
  </g>
 </g>
</svg>
