<?xml version="1.0" encoding="UTF-8"?>
<!DOCTYPE svg PUBLIC "-//W3C//DTD SVG 1.0//EN" "http://www.w3.org/TR/2001/REC-SVG-20010904/DTD/svg10.dtd">
<!-- Creator: CorelDRAW 2018 (64-Bit) -->
<svg xmlns="http://www.w3.org/2000/svg" xml:space="preserve" width="32px" height="30px" version="1.0" style="shape-rendering:geometricPrecision; text-rendering:geometricPrecision; image-rendering:optimizeQuality; fill-rule:evenodd; clip-rule:evenodd"
viewBox="0 0 0.69 0.657"
 xmlns:xlink="http://www.w3.org/1999/xlink">
 <defs>
  <style type="text/css">
   <![CDATA[
    .str0 {stroke:#2B2A29;stroke-width:0.012;stroke-miterlimit:22.9256}
    .fil1 {fill:#EF7F1A}
    .fil0 {fill:#E31E24}
   ]]>
  </style>
 </defs>
 <g id="Слой_x0020_1">
  <metadata id="CorelCorpID_0Corel-Layer"/>
  <g id="_1503973009632">
   <path class="fil0 str0" d="M0.561 0.504c0,0.081 -0.101,0.147 -0.227,0.147 -0.125,0 -0.227,-0.066 -0.227,-0.147l-0.068 -0.257 0.59 0 -0.068 0.257 0 0z"/>
   <path class="fil1 str0" d="M0.334 0.006c0.181,0 0.328,0.098 0.328,0.219 0,0.029 -0.009,0.057 -0.024,0.083 0.028,0.016 0.046,0.041 0.046,0.07 0,0.048 -0.051,0.087 -0.115,0.087 -0.041,0 -0.078,-0.016 -0.098,-0.041 -0.041,0.012 -0.088,0.019 -0.137,0.019 -0.181,0 -0.328,-0.097 -0.328,-0.218 0,-0.121 0.147,-0.219 0.328,-0.219z"/>
  </g>
 </g>
</svg>
