<?xml version="1.0" encoding="UTF-8"?>
<!DOCTYPE svg PUBLIC "-//W3C//DTD SVG 1.0//EN" "http://www.w3.org/TR/2001/REC-SVG-20010904/DTD/svg10.dtd">
<!-- Creator: CorelDRAW 2018 (64-Bit) -->
<svg xmlns="http://www.w3.org/2000/svg" xml:space="preserve" width="402px" height="183px" version="1.0" style="shape-rendering:geometricPrecision; text-rendering:geometricPrecision; image-rendering:optimizeQuality; fill-rule:evenodd; clip-rule:evenodd"
viewBox="0 0 35.774 16.275"
 xmlns:xlink="http://www.w3.org/1999/xlink">
 <defs>
  <style type="text/css">
   <![CDATA[
    .fil0 {fill:black;fill-rule:nonzero}
   ]]>
  </style>
 </defs>
 <g id="Слой_x0020_1">
  <metadata id="CorelCorpID_0Corel-Layer"/>
  <path class="fil0" d="M0 8.647c0.337,0.004 4.784,0.008 5.12,0.012 0.057,0.003 0.134,0.042 0.182,0.069 0.127,0.074 0.23,0.16 0.337,0.259 0.215,0.204 0.392,0.413 0.564,0.651 0.467,1.126 0.557,2.83 1.087,3.901 0.028,0.055 0.057,0.105 0.092,0.156 0.193,0.265 0.399,0.409 0.703,0.541 0.272,0.107 0.503,0.156 0.795,0.182 0.074,0.012 0.236,0.022 0.418,0.016l0 -0.806c-0.088,-0.025 -0.167,-0.046 -0.226,-0.066 -0.181,-0.068 -0.347,-0.136 -0.514,-0.234 -0.09,-0.055 -0.183,-0.117 -0.239,-0.207 -0.002,-0.003 -0.022,-0.042 -0.024,-0.047 -0.52,-1.04 -0.554,-2.751 -1.186,-4.035 -0.104,-0.141 -0.207,-0.272 -0.317,-0.398l10.556 0 0 0.006c0.337,0.004 0.674,0.008 1.011,0.012 0.056,0.003 0.133,0.042 0.181,0.069 0.127,0.074 0.23,0.16 0.337,0.259 0.215,0.204 0.392,0.413 0.564,0.651 0.467,1.126 0.558,2.83 1.087,3.901 0.028,0.055 0.057,0.105 0.092,0.156 0.193,0.265 0.399,0.409 0.703,0.541 0.272,0.107 0.504,0.156 0.795,0.182 0.074,0.012 0.236,0.022 0.418,0.016l0 -0.806c-0.088,-0.025 -0.167,-0.046 -0.225,-0.066 -0.182,-0.068 -0.348,-0.136 -0.514,-0.234 -0.091,-0.055 -0.183,-0.117 -0.239,-0.207 -0.003,-0.003 -0.022,-0.042 -0.025,-0.047 -0.52,-1.04 -0.554,-2.751 -1.186,-4.035 -0.102,-0.139 -0.204,-0.268 -0.311,-0.392l10.551 0c0.336,0.004 0.673,0.008 1.01,0.012 0.057,0.003 0.133,0.042 0.181,0.069 0.127,0.074 0.23,0.16 0.338,0.259 0.214,0.204 0.391,0.413 0.564,0.651 0.466,1.126 0.557,2.83 1.086,3.901 0.028,0.055 0.057,0.105 0.092,0.156 0.193,0.265 0.399,0.409 0.703,0.541 0.272,0.107 0.504,0.156 0.796,0.182 0.073,0.012 0.235,0.022 0.417,0.016l0 1.841 0 0 0 -4.67 0 0.002 0 2.021c-0.088,-0.025 -0.167,-0.046 -0.225,-0.066 -0.181,-0.068 -0.348,-0.136 -0.514,-0.234 -0.091,-0.055 -0.183,-0.117 -0.239,-0.207 -0.003,-0.003 -0.022,-0.042 -0.025,-0.047 -0.52,-1.04 -0.553,-2.751 -1.186,-4.035 -0.218,-0.296 -0.436,-0.549 -0.706,-0.805 -0.037,-0.034 -0.073,-0.066 -0.109,-0.097 0.036,-0.03 0.072,-0.062 0.109,-0.096 0.27,-0.256 0.488,-0.509 0.706,-0.805 0.633,-1.284 0.666,-2.996 1.186,-4.035 0.003,-0.005 0.022,-0.044 0.025,-0.047 0.056,-0.09 0.148,-0.152 0.239,-0.207 0.166,-0.098 0.333,-0.166 0.514,-0.235 0.058,-0.019 0.137,-0.04 0.225,-0.065l0 2.02 0 0.002 0 -4.669 0 0 0 1.84c-0.182,-0.006 -0.344,0.005 -0.417,0.017 -0.292,0.025 -0.524,0.074 -0.796,0.182 -0.304,0.132 -0.51,0.276 -0.703,0.541 -0.035,0.051 -0.064,0.101 -0.092,0.156 -0.529,1.071 -0.62,2.774 -1.086,3.901 -0.173,0.237 -0.35,0.446 -0.564,0.651 -0.108,0.099 -0.211,0.184 -0.338,0.259 -0.048,0.026 -0.124,0.066 -0.181,0.068 -0.337,0.005 -0.674,0.009 -1.01,0.013l-10.551 0c0.107,-0.125 0.209,-0.254 0.311,-0.392 0.632,-1.284 0.666,-2.996 1.186,-4.035 0.003,-0.005 0.022,-0.044 0.025,-0.047 0.056,-0.09 0.148,-0.152 0.239,-0.207 0.166,-0.098 0.332,-0.166 0.514,-0.235 0.058,-0.019 0.137,-0.04 0.225,-0.065l0 -0.807c-0.182,-0.006 -0.344,0.005 -0.418,0.017 -0.291,0.025 -0.523,0.074 -0.795,0.182 -0.304,0.132 -0.51,0.276 -0.703,0.541 -0.035,0.051 -0.064,0.101 -0.092,0.156 -0.529,1.071 -0.62,2.774 -1.087,3.901 -0.172,0.237 -0.349,0.446 -0.564,0.651 -0.107,0.099 -0.21,0.184 -0.337,0.259 -0.048,0.026 -0.125,0.066 -0.181,0.068l-0.016 0.001 -0.016 0 -0.016 0 -0.008 0 -0.007 0 -0.001 0 -0.007 0 -0.008 0 0 0 -0.008 0.001 -0.008 0 -0.008 0 -0.008 0 0 0 -0.008 0 -0.008 0 0 0 -0.008 0 -0.007 0 0 0 -0.008 0 -0.008 0.001 0 0 -0.008 0 -0.008 0 0 0 -0.008 0 -0.008 0 0 0 -0.008 0 -0.008 0 0 0 -0.007 0 -0.008 0 0 0 -0.008 0 -0.008 0.001 0 0 -0.008 0 -0.008 0 0 0 -0.008 0 -0.008 0 0 0 -0.008 0 -0.007 0 0 0 -0.008 0 -0.008 0 0 0 -0.008 0 -0.008 0.001 0 0 -0.008 0 -0.008 0 0 0 -0.008 0 -0.008 0 0 0 -0.007 0 -0.008 0 0 0 -0.008 0 -0.008 0 0 0 -0.008 0 -0.008 0.001 0 0 -0.008 0 -0.008 0 0 0 -0.008 0 -0.007 0 -0.001 0 -0.007 0 -0.008 0 0 0 -0.008 0 -0.008 0 0 0 -0.008 0 -0.008 0 0 0.001 -0.008 0 -0.008 0 0 0 -0.008 0 -0.007 0 0 0 -11.051 0c0.105,-0.123 0.205,-0.25 0.306,-0.386 0.632,-1.284 0.666,-2.996 1.186,-4.035 0.002,-0.005 0.022,-0.044 0.024,-0.047 0.056,-0.09 0.149,-0.152 0.239,-0.207 0.167,-0.098 0.333,-0.166 0.514,-0.235 0.059,-0.019 0.138,-0.04 0.226,-0.065l0 -0.807c-0.182,-0.006 -0.344,0.005 -0.418,0.017 -0.292,0.025 -0.523,0.074 -0.795,0.182 -0.304,0.132 -0.51,0.276 -0.703,0.541 -0.035,0.051 -0.064,0.101 -0.092,0.156 -0.53,1.071 -0.62,2.774 -1.087,3.901 -0.172,0.237 -0.349,0.446 -0.564,0.651 -0.107,0.099 -0.21,0.184 -0.337,0.259 -0.048,0.026 -0.125,0.066 -0.182,0.068 -0.641,0.009 -4.476,0.013 -5.12,0.013l0 1.019z"/>
 </g>
</svg>
