<?xml version="1.0" encoding="UTF-8"?>
<!DOCTYPE svg PUBLIC "-//W3C//DTD SVG 1.0//EN" "http://www.w3.org/TR/2001/REC-SVG-20010904/DTD/svg10.dtd">
<!-- Creator: CorelDRAW 2018 (64-Bit) -->
<svg xmlns="http://www.w3.org/2000/svg" xml:space="preserve" width="320px" height="568px" version="1.0" style="shape-rendering:geometricPrecision; text-rendering:geometricPrecision; image-rendering:optimizeQuality; fill-rule:evenodd; clip-rule:evenodd"
viewBox="0 0 320 567.833"
 xmlns:xlink="http://www.w3.org/1999/xlink">
 <defs>
  <style type="text/css">
   <![CDATA[
    .str0 {stroke:#EBECEC;stroke-width:0.216;stroke-miterlimit:22.9256}
    .fil0 {fill:none}
    .fil1 {fill:black;fill-rule:nonzero}
   ]]>
  </style>
 </defs>
 <g id="Слой_x0020_1">
  <metadata id="CorelCorpID_0Corel-Layer"/>
  <rect class="fil0 str0" x="0.108" y="0.108" width="319.784" height="567.617"/>
  <path class="fil1" d="M165.723 434.434c0.911,19.589 11.438,19.979 30.124,24.512 8.073,1.922 16.811,3.67 24.474,7.349 3.273,1.619 6.066,3.312 8.493,6.501 1.083,1.481 1.774,2.77 2.275,4.66 0.359,0.812 0.637,5.327 -0.637,5.327 -0.716,-0.096 -1.696,-2.8 -2.223,-3.713 -0.673,-1.084 -1.298,-1.797 -2.196,-2.61 -2.347,-1.916 -4.767,-2.924 -7.467,-3.881 -7.711,-2.359 -16.08,-3.434 -23.961,-4.792 -9.029,-1.613 -17.05,-3.216 -25.488,-7.756 -9.337,-5.585 -14.575,-14.652 -14.84,-25.597 -0.042,-3.783 -0.088,-7.565 -0.139,-11.345 -0.032,-0.639 -0.474,-1.495 -0.771,-2.033 -0.835,-1.432 -1.798,-2.591 -2.906,-3.795 -2.298,-2.409 -4.646,-4.401 -7.314,-6.333 -12.652,-5.238 -31.78,-6.257 -43.815,-12.203 -0.618,-0.316 -1.177,-0.641 -1.752,-1.036 -2.974,-2.17 -4.592,-4.477 -6.078,-7.893 -1.203,-3.057 -1.755,-5.656 -2.039,-8.934 -0.138,-0.83 -0.253,-2.645 -0.186,-4.692l-24.213 0c-2.474,0 -4.497,-2.023 -4.497,-4.497l0 0c0,-2.473 2.023,-4.497 4.497,-4.497l27.981 0 27.981 0c2.474,0 4.497,2.024 4.497,4.497l0 0c0,2.474 -2.023,4.497 -4.497,4.497l-22.692 0c0.279,0.992 0.521,1.878 0.737,2.533 0.772,2.035 1.53,3.901 2.631,5.774 0.618,1.02 1.32,2.054 2.33,2.684 0.031,0.03 0.469,0.247 0.527,0.277 11.672,5.836 30.892,6.215 45.313,13.321 1.582,1.163 3.054,2.326 4.472,3.552l0 -118.557 -0.067 0c-0.042,-3.784 -0.088,-7.565 -0.139,-11.346 -0.032,-0.638 -0.474,-1.495 -0.771,-2.033 -0.835,-1.431 -1.798,-2.59 -2.906,-3.794 -2.298,-2.409 -4.646,-4.401 -7.314,-6.334 -12.652,-5.237 -31.78,-6.257 -43.815,-12.203 -0.618,-0.316 -1.177,-0.64 -1.752,-1.036 -2.974,-2.169 -4.592,-4.477 -6.078,-7.892 -1.203,-3.058 -1.755,-5.657 -2.039,-8.935 -0.138,-0.829 -0.253,-2.645 -0.186,-4.691l-24.213 0c-2.474,0 -4.497,-2.024 -4.497,-4.497l0 0c0,-2.474 2.023,-4.497 4.497,-4.497l27.981 0 27.981 0c2.474,0 4.497,2.023 4.497,4.497l0 0c0,2.473 -2.023,4.497 -4.497,4.497l-22.692 0c0.279,0.991 0.521,1.877 0.737,2.532 0.772,2.035 1.53,3.902 2.631,5.774 0.618,1.02 1.32,2.055 2.33,2.685 0.031,0.029 0.469,0.246 0.527,0.276 11.672,5.836 30.892,6.215 45.313,13.322 1.557,1.144 3.008,2.288 4.405,3.494l0 -118.5c-0.042,-3.783 -0.088,-7.565 -0.139,-11.345 -0.032,-0.639 -0.474,-1.495 -0.771,-2.033 -0.835,-1.432 -1.798,-2.591 -2.906,-3.795 -2.298,-2.409 -4.646,-4.401 -7.314,-6.333 -12.652,-5.238 -31.78,-6.257 -43.815,-12.203 -0.618,-0.316 -1.177,-0.641 -1.752,-1.036 -2.974,-2.17 -4.592,-4.477 -6.078,-7.893 -1.203,-3.057 -1.755,-5.656 -2.039,-8.934 -0.138,-0.83 -0.253,-2.645 -0.186,-4.692l-24.213 0c-2.474,0 -4.497,-2.023 -4.497,-4.497l0 0c0,-2.473 2.023,-4.497 4.497,-4.497l27.981 0 27.981 0c2.474,0 4.497,2.024 4.497,4.497l0 0c0,2.474 -2.023,4.497 -4.497,4.497l-22.692 0c0.279,0.992 0.521,1.878 0.737,2.533 0.772,2.034 1.53,3.901 2.631,5.774 0.618,1.02 1.32,2.054 2.33,2.684 0.031,0.03 0.469,0.247 0.527,0.277 11.672,5.836 30.892,6.215 45.313,13.321 3.33,2.446 6.172,4.896 9.044,7.932 0.378,0.413 0.738,0.819 1.084,1.223 0.346,-0.404 0.706,-0.81 1.084,-1.223 2.872,-3.036 5.714,-5.486 9.044,-7.932 14.421,-7.106 33.641,-7.485 45.313,-13.321 0.058,-0.03 0.496,-0.247 0.527,-0.277 1.01,-0.63 1.712,-1.664 2.33,-2.684 1.101,-1.873 1.859,-3.74 2.631,-5.774 0.216,-0.655 0.458,-1.541 0.737,-2.533l-22.692 0c-2.474,0 -4.497,-2.023 -4.497,-4.497l0 0c0,-2.473 2.023,-4.497 4.497,-4.497l27.981 0 27.981 0c2.474,0 4.497,2.024 4.497,4.497l0 0c0,2.474 -2.023,4.497 -4.497,4.497l-24.213 0c0.067,2.047 -0.048,3.862 -0.186,4.692 -0.284,3.278 -0.836,5.877 -2.039,8.934 -1.486,3.416 -3.104,5.723 -6.078,7.893 -0.575,0.395 -1.134,0.72 -1.752,1.036 -12.035,5.946 -31.163,6.965 -43.815,12.203 -2.668,1.932 -5.016,3.924 -7.314,6.333 -1.108,1.204 -2.071,2.363 -2.906,3.795 -0.297,0.538 -0.739,1.394 -0.771,2.033 -0.051,3.78 -0.097,7.562 -0.139,11.345l0 118.5c1.397,-1.206 2.848,-2.35 4.405,-3.494 14.421,-7.107 33.641,-7.486 45.313,-13.322 0.058,-0.03 0.496,-0.247 0.527,-0.276 1.01,-0.63 1.712,-1.665 2.33,-2.685 1.101,-1.872 1.859,-3.739 2.631,-5.774 0.216,-0.655 0.458,-1.541 0.737,-2.532l-22.692 0c-2.474,0 -4.497,-2.024 -4.497,-4.497l0 0c0,-2.474 2.023,-4.497 4.497,-4.497l27.981 0 27.981 0c2.474,0 4.497,2.023 4.497,4.497l0 0c0,2.473 -2.023,4.497 -4.497,4.497l-24.213 0c0.067,2.046 -0.048,3.862 -0.186,4.691 -0.284,3.278 -0.836,5.877 -2.039,8.935 -1.486,3.415 -3.104,5.723 -6.078,7.892 -0.575,0.396 -1.134,0.72 -1.752,1.036 -12.035,5.946 -31.163,6.966 -43.815,12.203 -2.668,1.933 -5.016,3.925 -7.314,6.334 -1.108,1.204 -2.071,2.363 -2.906,3.794 -0.297,0.538 -0.739,1.395 -0.771,2.033l-0.002 0.177 -0.003 0.177 -0.002 0.178 -0.001 0.088 -0.001 0.089 -0.001 0 -0.001 0.089 -0.001 0.088 0 0 -0.001 0.089 -0.001 0.088 -0.001 0.089 -0.001 0.088 0 0.001 -0.001 0.088 -0.002 0.089 0 0 -0.001 0.089 -0.001 0.088 0 0 -0.001 0.089 -0.001 0.088 0 0 -0.002 0.089 -0.001 0.088 0 0.001 -0.001 0.088 -0.001 0.089 0 0 -0.001 0.089 -0.001 0.088 0 0 -0.001 0.089 -0.002 0.088 0 0.001 -0.001 0.088 -0.001 0.088 0 0.001 -0.001 0.088 -0.001 0.089 0 0 -0.001 0.089 -0.001 0.088 -0.001 0 0 0.089 -0.002 0.088 0 0.001 -0.001 0.088 -0.001 0.088 0 0.001 -0.001 0.089 -0.001 0.088 0 0 -0.001 0.089 -0.001 0.088 0 0 -0.002 0.089 -0.001 0.088 0 0.001 -0.001 0.088 -0.001 0.088 0 0.001 -0.001 0.089 -0.001 0.088 0 0 -0.001 0.089 -0.001 0.088 0 0.001 -0.002 0.088 0 0.088 -0.001 0.001 -0.001 0.089 -0.001 0.087 0 0.001 -0.001 0.089 -0.001 0.088 0 0.001 -0.001 0.088 -0.001 0.088 0 0.001 -0.001 0.088 -0.001 0.088 0 0.001 -0.001 0.089 -0.001 0.087 0 0.001 -0.002 0.089 -0.001 0.088 0 0.001 0 124.115c1.377,-1.184 2.806,-2.311 4.339,-3.437 14.421,-7.106 33.641,-7.485 45.313,-13.321 0.058,-0.03 0.496,-0.247 0.527,-0.277 1.01,-0.63 1.712,-1.664 2.33,-2.684 1.101,-1.873 1.859,-3.739 2.631,-5.774 0.216,-0.655 0.458,-1.541 0.737,-2.533l-22.692 0c-2.474,0 -4.497,-2.023 -4.497,-4.497l0 0c0,-2.473 2.023,-4.497 4.497,-4.497l27.981 0 27.981 0c2.474,0 4.497,2.024 4.497,4.497l0 0c0,2.474 -2.023,4.497 -4.497,4.497l-24.213 0c0.067,2.047 -0.048,3.862 -0.186,4.692 -0.284,3.278 -0.836,5.877 -2.039,8.934 -1.486,3.416 -3.104,5.723 -6.078,7.893 -0.575,0.395 -1.134,0.72 -1.752,1.036 -12.035,5.946 -31.163,6.965 -43.815,12.203 -2.668,1.932 -5.016,3.924 -7.314,6.333 -1.108,1.204 -2.071,2.363 -2.906,3.795 -0.297,0.538 -0.739,1.394 -0.771,2.033l-0.002 0.177 -0.003 0.177 -0.002 0.177 -0.002 0.177 -0.001 0.089 -0.002 0.089 0 0 -0.001 0.088 -0.001 0.089 -0.002 0.177 -0.003 0.177 -0.001 0.089 -0.001 0.089 0 0 -0.001 0.088 -0.001 0.089 -0.003 0.177 -0.002 0.177 -0.002 0.178 -0.003 0.177 -0.002 0.177 -0.002 0.177 -0.002 0.178 -0.003 0.177 -0.002 0.177 -0.002 0.177 -0.002 0.178 -0.002 0.088 -0.001 0.089 0 0 -0.001 0.088 -0.001 0.089 -0.002 0.177 -0.002 0.178 -0.002 0.088 0 0.089 0 0 -0.002 0.088 -0.001 0.089 -0.002 0.177 -0.002 0.178 -0.004 0.354 -0.003 0.177 0 0.001 -0.001 0.089 -0.001 0.088 0 0.001 -0.001 0.088 -0.001 0.088 0 0.001 -0.001 0.088 -0.001 0.088 0 0.001 -0.001 0.089 -0.001 0.088 -0.001 0 0 0.089 -0.002 0.088 0 0.001 -0.001 0.088 -0.001 0.088 0 0.001 -0.001 0.088 -0.001 0.088 0 0.001 -0.001 0.089 -0.001 0.088 0 0 -0.001 0.089 -0.001 0.088 0 0.001 -0.001 0.088 -0.001 0.088 0 0.001 -0.001 0.088 -0.001 0.089 0 0 -0.001 0.089 -0.001 0.088 -0.001 0 0 0.089 -0.001 0.088 0 0.001 -0.002 0.088 0 0.088 0 0.001 -0.002 0.089 -0.001 0.088 0 0 -0.001 0.089 -0.001 0.088 0 0 -0.001 0.089 -0.001 0.088 0 0.001 -0.001 0.088 -0.001 0.089 0 0 -0.001 0.089 -0.001 0.088 0 0 -0.001 0.089 -0.001 0.088 0 0.001 -0.001 0.088 -0.001 0.089 0 0 -0.001 0.089 -0.001 0.088 0 0 -0.001 0.089 -0.001 0.088 0 0.001 -0.001 0.088 -0.001 0.089 -0.002 0.177 -0.002 0.177 -0.002 0.178 -0.002 0.177 -0.002 0.177 -0.002 0.178 -0.002 0.177 -0.002 0.177z"/>
 </g>
</svg>
