<?xml version="1.0" encoding="UTF-8"?>
<!DOCTYPE svg PUBLIC "-//W3C//DTD SVG 1.0//EN" "http://www.w3.org/TR/2001/REC-SVG-20010904/DTD/svg10.dtd">
<!-- Creator: CorelDRAW 2018 (64-Bit) -->
<svg xmlns="http://www.w3.org/2000/svg" xml:space="preserve" width="276px" height="291px" version="1.0" style="shape-rendering:geometricPrecision; text-rendering:geometricPrecision; image-rendering:optimizeQuality; fill-rule:evenodd; clip-rule:evenodd"
viewBox="0 0 42.547 44.873"
 xmlns:xlink="http://www.w3.org/1999/xlink">
 <defs>
  <style type="text/css">
   <![CDATA[
    .str0 {stroke:#2B2A29;stroke-width:0.088;stroke-miterlimit:22.9256}
    .fil6 {fill:none}
    .fil4 {fill:#FEFEFE}
    .fil7 {fill:#EBECEC}
    .fil1 {fill:#D9DADA}
    .fil5 {fill:#9D9E9E}
    .fil0 {fill:#898989}
    .fil3 {fill:#727271}
    .fil2 {fill:#5B5B5B}
    .fil12 {fill:#EF7F1A}
    .fil10 {fill:#E31E24}
    .fil11 {fill:#E9E5A8}
    .fil9 {fill:#95D0CC}
    .fil8 {fill:#0E827B}
   ]]>
  </style>
 </defs>
 <g id="Слой_x0020_1">
  <metadata id="CorelCorpID_0Corel-Layer"/>
  <rect class="fil0 str0" x="14.679" y="23.214" width="13.124" height="21.616" rx="0.958" ry="0.976"/>
  <path class="fil1 str0" d="M27.803 38.106c-1.747,-0.964 -4.044,-1.549 -6.562,-1.549 -2.518,0 -4.816,0.585 -6.563,1.549l0 5.748c0,0.537 0.432,0.976 0.959,0.976l11.207 0c0.527,0 0.959,-0.439 0.959,-0.976l0 -5.748z"/>
  <path class="fil2" d="M24.164 40.01l2.504 -2.444c0,0 1.043,-5.591 0.754,-5.886 -0.29,-0.295 -1.014,-2.507 -4.489,-1.769 -3.476,0.737 1.231,10.099 1.231,10.099z"/>
  <path class="fil3" d="M24.164 40.01l2.504 -2.444c-1.169,-0.479 -2.51,-0.807 -3.954,-0.941 0.685,1.864 1.45,3.385 1.45,3.385z"/>
  <g id="_1503975568016">
   <rect class="fil0 str0" x="0.044" y="0.044" width="13.124" height="21.616" rx="0.958" ry="0.976"/>
   <path class="fil1 str0" d="M13.168 14.936c-1.746,-0.963 -4.044,-1.549 -6.562,-1.549 -2.518,0 -4.816,0.586 -6.562,1.549l0 5.748c0,0.537 0.431,0.976 0.958,0.976l11.208 0c0.527,0 0.958,-0.439 0.958,-0.976l0 -5.748z"/>
   <polygon class="fil4 str0" points="6.171,0.991 7.04,0.991 7.04,2.852 6.171,3.94 "/>
  </g>
  <rect class="fil0 str0" x="14.679" y="0.044" width="13.124" height="21.616" rx="0.958" ry="0.976"/>
  <path class="fil1 str0" d="M27.803 14.936c-1.747,-0.963 -4.044,-1.549 -6.562,-1.549 -2.518,0 -4.816,0.586 -6.563,1.549l0 5.748c0,0.537 0.432,0.976 0.959,0.976l11.207 0c0.527,0 0.959,-0.439 0.959,-0.976l0 -5.748z"/>
  <path class="fil2" d="M24.164 16.84l2.504 -2.444c0,0 1.043,-5.591 0.754,-5.886 -0.29,-0.295 -1.014,-2.506 -4.489,-1.769 -3.476,0.737 1.231,10.099 1.231,10.099z"/>
  <path class="fil3" d="M24.164 16.84l2.504 -2.444c-1.169,-0.479 -2.51,-0.807 -3.954,-0.941 0.685,1.864 1.45,3.385 1.45,3.385z"/>
  <path class="fil5 str0" d="M24.113 16.296c0,0.821 -1.279,1.486 -2.858,1.486 -1.578,0 -2.857,-0.665 -2.857,-1.486l-1.04 -7.94 7.624 0c-0.378,2.702 -0.869,5.266 -0.869,7.94z"/>
  <ellipse class="fil4 str0" cx="21.255" cy="8.003" rx="4.073" ry="2.117"/>
  <path class="fil6 str0" d="M24.599 11.088c-0.735,0.549 -1.959,0.909 -3.344,0.909 -1.533,0 -2.869,-0.441 -3.564,-1.092"/>
  <path class="fil6 str0" d="M24.375 12.691c-0.747,0.463 -1.867,0.756 -3.12,0.756 -1.389,0 -2.615,-0.361 -3.35,-0.913"/>
  <path class="fil6 str0" d="M24.179 14.09c-0.74,0.397 -1.776,0.644 -2.924,0.644 -1.278,0 -2.418,-0.306 -3.165,-0.785"/>
  <ellipse class="fil7 str0" cx="21.255" cy="8.003" rx="3.734" ry="1.941"/>
  <polygon class="fil4 str0" points="20.806,0.991 21.675,0.991 21.675,2.852 20.806,3.94 "/>
  <g id="_1503975577200">
   <rect class="fil8 str0" x="29.38" y="0.044" width="13.124" height="21.616" rx="0.958" ry="0.976"/>
   <path class="fil9 str0" d="M42.504 14.936c-1.746,-0.963 -4.044,-1.549 -6.562,-1.549 -2.518,0 -4.816,0.586 -6.562,1.549l0 5.748c0,0.537 0.431,0.976 0.958,0.976l11.208 0c0.527,0 0.958,-0.439 0.958,-0.976l0 -5.748z"/>
   <path class="fil2" d="M38.865 16.84l2.505 -2.444c0,0 1.043,-5.591 0.753,-5.886 -0.29,-0.295 -1.014,-2.506 -4.489,-1.769 -3.476,0.737 1.231,10.099 1.231,10.099z"/>
   <path class="fil3" d="M38.865 16.84l2.505 -2.444c-1.169,-0.479 -2.511,-0.807 -3.955,-0.941 0.685,1.864 1.45,3.385 1.45,3.385z"/>
   <path class="fil10 str0" d="M38.815 16.296c0,0.821 -1.28,1.486 -2.858,1.486 -1.579,0 -2.858,-0.665 -2.858,-1.486l-1.04 -7.94 7.624 0c-0.378,2.702 -0.868,5.266 -0.868,7.94z"/>
   <ellipse class="fil4 str0" cx="35.957" cy="8.003" rx="4.073" ry="2.117"/>
   <path class="fil6 str0" d="M39.301 11.088c-0.736,0.549 -1.959,0.909 -3.344,0.909 -1.534,0 -2.87,-0.441 -3.564,-1.092"/>
   <path class="fil6 str0" d="M39.076 12.691c-0.747,0.463 -1.867,0.756 -3.119,0.756 -1.389,0 -2.616,-0.361 -3.351,-0.913"/>
   <path class="fil6 str0" d="M38.881 14.09c-0.741,0.397 -1.777,0.644 -2.924,0.644 -1.279,0 -2.419,-0.306 -3.166,-0.785"/>
   <ellipse class="fil4 str0" cx="35.957" cy="8.003" rx="3.734" ry="1.941"/>
   <path class="fil11" d="M39.075 9.071c-0.668,0.526 -1.815,0.873 -3.118,0.873 -1.304,0 -2.451,-0.347 -3.119,-0.873 0.668,-0.526 1.815,-0.874 3.119,-0.874 1.303,0 2.45,0.348 3.118,0.874z"/>
   <polygon class="fil4 str0" points="35.507,0.991 36.376,0.991 36.376,2.852 35.507,3.94 "/>
  </g>
  <g id="_1503975582448">
   <path class="fil5 str0" d="M23.958 38.966c0.112,0.156 0.172,0.324 0.172,0.5 0,0.809 -1.283,1.464 -2.866,1.464 -1.583,0 -2.867,-0.655 -2.867,-1.464l-1.042 -7.822 7.646 0 -1.043 7.322z"/>
   <ellipse class="fil4 str0" cx="21.264" cy="31.296" rx="4.085" ry="2.086"/>
   <ellipse class="fil7 str0" cx="21.264" cy="31.296" rx="3.745" ry="1.912"/>
   <path class="fil7 str0" d="M17.528 33.366l0.422 5.327c2.487,1.068 4.612,1.042 6.448,0.139l0.444 -5.286c-2.016,1.16 -4.401,1.255 -7.314,-0.18z"/>
   <line class="fil6 str0" x1="21.264" y1="34.441" x2="21.264" y2= "39.466" />
   <line class="fil6 str0" x1="23.011" y1="34.242" x2="22.502" y2= "39.369" />
   <line class="fil6 str0" x1="19.517" y1="34.242" x2="20.026" y2= "39.369" />
  </g>
  <g id="_1503909590608">
   <rect class="fil0 str0" x="0.044" y="23.214" width="13.124" height="21.616" rx="0.958" ry="0.976"/>
   <path class="fil1 str0" d="M13.168 38.106c-1.746,-0.964 -4.044,-1.549 -6.562,-1.549 -2.518,0 -4.816,0.585 -6.562,1.549l0 5.748c0,0.537 0.431,0.976 0.958,0.976l11.208 0c0.527,0 0.958,-0.439 0.958,-0.976l0 -5.748z"/>
   <polygon class="fil4 str0" points="6.171,24.161 7.04,24.161 7.04,26.022 6.171,27.109 "/>
  </g>
  <polygon class="fil4 str0" points="20.806,24.161 21.675,24.161 21.675,26.022 20.806,27.109 "/>
  <g id="_1503909592176">
   <rect class="fil8 str0" x="29.38" y="23.214" width="13.124" height="21.616" rx="0.958" ry="0.976"/>
   <path class="fil9 str0" d="M42.504 38.106c-1.746,-0.964 -4.044,-1.549 -6.562,-1.549 -2.518,0 -4.816,0.585 -6.562,1.549l0 5.748c0,0.537 0.431,0.976 0.958,0.976l11.208 0c0.527,0 0.958,-0.439 0.958,-0.976l0 -5.748z"/>
   <path class="fil2" d="M38.865 40.01l2.505 -2.444c0,0 1.043,-5.591 0.753,-5.886 -0.29,-0.295 -1.014,-2.507 -4.489,-1.769 -3.476,0.737 1.231,10.099 1.231,10.099z"/>
   <path class="fil3" d="M38.865 40.01l2.505 -2.444c-1.169,-0.479 -2.511,-0.807 -3.955,-0.941 0.685,1.864 1.45,3.385 1.45,3.385z"/>
   <path class="fil10 str0" d="M38.815 39.466c0,0.821 -1.28,1.486 -2.858,1.486 -1.579,0 -2.858,-0.665 -2.858,-1.486l-1.04 -7.94 7.624 0c-0.378,2.701 -0.868,5.266 -0.868,7.94z"/>
   <ellipse class="fil4 str0" cx="35.957" cy="31.173" rx="4.073" ry="2.117"/>
   <path class="fil6 str0" d="M39.301 34.258c-0.736,0.549 -1.959,0.909 -3.344,0.909 -1.534,0 -2.87,-0.441 -3.564,-1.092"/>
   <path class="fil6 str0" d="M39.076 35.861c-0.747,0.462 -1.867,0.756 -3.119,0.756 -1.389,0 -2.616,-0.361 -3.351,-0.913"/>
   <path class="fil6 str0" d="M38.881 37.26c-0.741,0.397 -1.777,0.644 -2.924,0.644 -1.279,0 -2.419,-0.306 -3.166,-0.785"/>
   <ellipse class="fil4 str0" cx="35.957" cy="31.173" rx="3.734" ry="1.941"/>
   <path class="fil11" d="M39.075 32.241c-0.668,0.526 -1.815,0.873 -3.118,0.873 -1.304,0 -2.451,-0.347 -3.119,-0.873 0.668,-0.527 1.815,-0.874 3.119,-0.874 1.303,0 2.45,0.347 3.118,0.874z"/>
   <polygon class="fil4 str0" points="35.507,24.161 36.376,24.161 36.376,26.022 35.507,27.109 "/>
  </g>
  <g id="_1503909602672">
   <path class="fil10 str0" d="M38.66 38.966c0.111,0.156 0.172,0.324 0.172,0.5 0,0.809 -1.284,1.464 -2.867,1.464 -1.583,0 -2.866,-0.655 -2.866,-1.464l-1.043 -7.822 7.647 0 -1.043 7.322z"/>
   <ellipse class="fil4 str0" cx="35.965" cy="31.296" rx="4.085" ry="2.086"/>
   <ellipse class="fil4 str0" cx="35.965" cy="31.296" rx="3.745" ry="1.912"/>
   <path class="fil12 str0" d="M32.229 33.366l0.422 5.327c2.487,1.068 4.613,1.042 6.448,0.139l0.445 -5.286c-2.017,1.16 -4.402,1.255 -7.315,-0.18z"/>
   <line class="fil6 str0" x1="35.965" y1="34.441" x2="35.965" y2= "39.466" />
   <line class="fil6 str0" x1="37.712" y1="34.242" x2="37.204" y2= "39.369" />
   <line class="fil6 str0" x1="34.218" y1="34.242" x2="34.727" y2= "39.369" />
  </g>
  <path class="fil11" d="M39.075 32.241c-0.668,0.526 -1.815,0.873 -3.118,0.873 -1.304,0 -2.451,-0.347 -3.119,-0.873 0.668,-0.527 1.815,-0.874 3.119,-0.874 1.303,0 2.45,0.347 3.118,0.874z"/>
 </g>
</svg>
